<svg width="27" height="27" viewBox="0 0 27 27" fill="none" xmlns="http://www.w3.org/2000/svg">
<rect x="0.1" y="0.1" width="26.8" height="26.8" fill="white" stroke="#454545" stroke-width="0.2"/>
<path fill-rule="evenodd" clip-rule="evenodd" d="M19.5543 14.4389C19.5179 14.3774 19.4479 14.3441 19.3773 14.3548C19.3067 14.3653 19.2495 14.4177 19.2327 14.4871C18.8487 15.9858 17.8718 17.3474 16.4043 18.1948C13.5575 19.8383 9.96112 18.9214 8.36216 16.1516C7.87097 15.301 7.62704 14.3748 7.60573 13.4523L9.4161 14.6034V14.6036C9.45539 14.6294 9.50337 14.6383 9.54927 14.6285C9.59516 14.6186 9.63531 14.5907 9.6604 14.551C9.68562 14.5114 9.69394 14.4633 9.68341 14.4175C9.67289 14.3717 9.64437 14.3321 9.60435 14.3075L7.52348 12.9843C7.48309 12.9586 7.43401 12.9506 7.38762 12.9619C7.34111 12.9733 7.30133 13.0032 7.27746 13.0446L6.02546 15.21H6.02534C6.00099 15.2504 5.99376 15.2989 6.00551 15.3445C6.01726 15.3902 6.04688 15.4292 6.08764 15.4528C6.12852 15.4765 6.17712 15.4826 6.22252 15.47C6.26793 15.4574 6.30637 15.4269 6.32913 15.3856L7.26914 13.7598C7.33315 14.6394 7.59006 15.5165 8.05812 16.3273C9.75443 19.2653 13.5728 20.2349 16.5796 18.4988C18.1299 17.6038 19.1656 16.1623 19.5726 14.5743V14.5742C19.5851 14.5284 19.5785 14.4796 19.5542 14.4388L19.5543 14.4389Z" fill="black"/>
<path fill-rule="evenodd" clip-rule="evenodd" d="M20.9742 11.0924C20.9419 11.0396 20.8841 11.0078 20.8222 11.0086C20.7603 11.0095 20.7033 11.0429 20.6725 11.0966L19.7538 12.6434C19.6944 11.7484 19.4356 10.8565 18.9602 10.0331C17.2639 7.09508 13.4455 6.12549 10.4387 7.86153C8.89622 8.75209 7.86149 10.1846 7.45243 11.7654H7.45255C7.43982 11.8108 7.44594 11.8594 7.46944 11.9003C7.49294 11.941 7.53186 11.9708 7.57752 11.9825C7.62317 11.9944 7.67164 11.9873 7.71203 11.9629C7.75242 11.9387 7.78131 11.8992 7.7922 11.8533C8.17823 10.3615 9.15387 9.00827 10.6142 8.1653C13.4609 6.52176 17.0573 7.43886 18.6563 10.2085C19.1516 11.0664 19.397 12.001 19.4151 12.9328L17.6224 11.7614C17.5835 11.735 17.5355 11.7253 17.4893 11.7346C17.4432 11.7439 17.4027 11.7713 17.377 11.8108C17.3513 11.8502 17.3425 11.8982 17.3525 11.9442C17.3625 11.9902 17.3907 12.0302 17.4305 12.0552L19.4965 13.4052C19.5366 13.4314 19.5855 13.4401 19.6322 13.4292C19.6788 13.4184 19.7189 13.3891 19.7433 13.3479L20.9742 11.2758C21.0088 11.2195 21.0088 11.1486 20.9742 11.0923L20.9742 11.0924Z" fill="black"/>
</svg>
