<svg width="27" height="27" viewBox="0 0 27 27" fill="none" xmlns="http://www.w3.org/2000/svg">
<rect x="0.1" y="0.1" width="26.8" height="26.8" fill="white" stroke="#606060" stroke-width="0.2"/>
<path d="M19.8105 8.19174C19.0406 7.42316 18.0174 7 16.93 7C15.8423 7 14.8194 7.42316 14.0496 8.19174L13.4998 8.74153L12.9502 8.19174C12.1817 7.42316 11.159 7 10.0707 7C8.98246 7 7.95904 7.42316 7.18896 8.19187C5.60368 9.78014 5.60368 12.3645 7.18896 13.9531L13.0442 19.8049C13.1658 19.9266 13.3275 19.9935 13.4998 19.9935C13.6721 19.9935 13.834 19.9266 13.9554 19.8051L19.811 13.9528C21.3964 12.3644 21.3964 9.77979 19.8107 8.19148L19.8105 8.19174ZM19.5915 13.7336L13.736 19.5856C13.6731 19.6486 13.5892 19.6834 13.4997 19.6834C13.4101 19.6834 13.3264 19.6486 13.2634 19.5856L7.40846 13.7339C5.9437 12.2663 5.9437 9.87844 7.40833 8.41114C8.1197 7.70127 9.06526 7.31021 10.0708 7.31021C11.0763 7.31021 12.021 7.70101 12.7309 8.41101L13.3901 9.07024C13.4506 9.13082 13.549 9.13082 13.6093 9.07024L14.2685 8.41114C14.9796 7.70127 15.925 7.31021 16.9297 7.31021C17.9348 7.31021 18.88 7.70127 19.5911 8.41101C21.056 9.87825 21.056 12.2662 19.5914 13.7335L19.5915 13.7336Z" fill="black"/>
</svg>
