<svg width="27" height="27" viewBox="0 0 27 27" fill="none" xmlns="http://www.w3.org/2000/svg">
<rect x="0.1" y="0.1" width="26.8" height="26.8" fill="white" stroke="#606060" stroke-width="0.2"/>
<path d="M6.17324 7C6.07756 7 6 7.07756 6 7.17324C6 7.26892 6.07756 7.34647 6.17324 7.34647H8.13248C9.03504 9.59528 9.93345 11.845 10.8331 14.0955L9.99422 16.1089C9.94698 16.2151 10.0404 16.3552 10.1566 16.3524H18.816C18.9074 16.3541 18.9916 16.2708 18.9916 16.1792C18.9916 16.0878 18.9074 16.0048 18.816 16.006H10.4164L11.147 14.2579L19.6981 13.576C19.7687 13.5692 19.8322 13.5148 19.8496 13.4461L20.8888 8.94322C20.9113 8.84271 20.8241 8.7329 20.721 8.73217H9.06332L8.41387 7.10854C8.38802 7.04451 8.32061 6.99957 8.25151 7.0003L6.17324 7ZM9.20402 9.07822H20.5045L19.5412 13.2455L11.1364 13.9166L9.20402 9.07822ZM11.8885 17.3912C11.1253 17.3912 10.5029 18.0136 10.5029 18.7767C10.5029 19.5399 11.1253 20.1623 11.8885 20.1623C12.6516 20.1623 13.274 19.5399 13.274 18.7767C13.274 18.0136 12.6516 17.3912 11.8885 17.3912ZM17.0841 17.3912C16.3209 17.3912 15.6985 18.0136 15.6985 18.7767C15.6985 19.5399 16.3209 20.1623 17.0841 20.1623C17.8472 20.1623 18.4696 19.5399 18.4696 18.7767C18.4696 18.0136 17.8472 17.3912 17.0841 17.3912ZM11.8885 17.7376C12.4645 17.7376 12.9276 18.2007 12.9276 18.7767C12.9276 19.3528 12.4645 19.8159 11.8885 19.8159C11.3126 19.8159 10.8493 19.3528 10.8493 18.7767C10.8493 18.2009 11.3125 17.7376 11.8885 17.7376ZM17.0841 17.7376C17.66 17.7376 18.1233 18.2007 18.1233 18.7767C18.1233 19.3528 17.6601 19.8159 17.0841 19.8159C16.5081 19.8159 16.0449 19.3528 16.0449 18.7767C16.0449 18.2009 16.5081 17.7376 17.0841 17.7376Z" fill="black"/>
</svg>
